<svg width="38" height="38" viewBox="0 0 38 38" fill="none" xmlns="http://www.w3.org/2000/svg">
<path fill-rule="evenodd" clip-rule="evenodd" d="M22.942 37.3531C33.1347 35.1194 39.5867 25.0458 37.3531 14.8531C35.1194 4.66034 25.0458 -1.79173 14.8531 0.441959C4.66034 2.67565 -1.79173 12.7492 0.441959 22.942C1.03309 25.6394 2.1733 28.0749 3.71949 30.1567C12.3214 29.6565 18.4471 24.788 16.237 20.0493C15.805 19.2479 15.2592 18.4616 14.7085 17.6684L14.7085 17.6684C14.3531 17.1565 13.9956 16.6417 13.6655 16.118C13.3238 15.5759 13.9368 14.8748 14.5249 15.1293C16.6414 16.0455 19.8109 17.2442 21.4999 17.0391C23.0906 16.8459 25.7217 15.2371 27.6001 13.9593C28.1502 13.5851 28.9467 14.2401 28.6874 14.8528C27.7977 16.9546 26.7407 19.8679 26.9342 21.462C27.1359 23.1227 28.8805 25.9173 30.1805 27.8056C30.5479 28.3392 29.9567 29.0904 29.3546 28.8514C28.8343 28.6449 28.3256 28.4141 27.8201 28.1848L27.82 28.1848L27.82 28.1847C26.9445 27.7875 26.0786 27.3947 25.1782 27.1396L25.1852 27.1452C24.9735 27.0859 24.7709 27.0349 24.5767 26.9923C23.9928 26.8729 23.3911 26.8211 22.7602 26.8714C22.0951 26.9692 21.5474 27.2625 21.0388 27.7711C18.7072 30.4154 14.6786 34.7488 9.55375 35.319C13.4701 37.549 18.1931 38.3938 22.942 37.3531Z" fill="url(#paint0_linear_1201_85)"/>
<defs>
<linearGradient id="paint0_linear_1201_85" x1="14.854" y1="0.443832" x2="22.9429" y2="37.3549" gradientUnits="userSpaceOnUse">
<stop stop-color="#A888FF"/>
<stop offset="1" stop-color="#8C63FF"/>
</linearGradient>
</defs>
</svg>
