<svg width="110" height="21" viewBox="0 0 110 21" fill="none" xmlns="http://www.w3.org/2000/svg">
<path d="M7.85983 0.233854C13.2534 -0.948125 18.5849 2.46632 19.7671 7.85983C20.949 13.2534 17.5346 18.5849 12.1411 19.7671C9.62946 20.3175 7.13177 19.8695 5.06003 18.6909C7.76999 18.3873 9.90005 16.0963 11.1333 14.6977C11.3968 14.4342 11.6807 14.2809 12.0229 14.226C12.3643 14.1965 12.6891 14.2222 13.0044 14.2866C13.1074 14.3092 13.2152 14.3352 13.3276 14.3667L13.3247 14.3637C14.076 14.5767 14.7817 14.9715 15.5337 15.27C15.8523 15.3965 16.1656 14.9986 15.9712 14.7163C15.2833 13.7172 14.3602 12.2386 14.2534 11.3598C14.1509 10.5162 14.7103 8.97395 15.1811 7.86178C15.3178 7.5378 14.8969 7.19168 14.6059 7.38913C13.6119 8.06528 12.2192 8.91679 11.3774 9.01901C10.4837 9.12746 8.80689 8.49305 7.68698 8.00827C7.37579 7.87356 7.05107 8.24485 7.2319 8.53171C7.67327 9.23183 8.20685 9.90212 8.58249 10.5932C9.77727 13.1061 6.53427 15.6927 1.97311 15.9594C1.15394 14.8573 0.546942 13.5695 0.233854 12.1411C-0.948125 6.7475 2.46632 1.41599 7.85983 0.233854Z" fill="url(#paint0_linear_1231_2)"/>
<path d="M24.9976 10.7093V10.6402L28.3836 8.98176V10.2774C28.781 9.74189 29.5756 8.98176 30.8022 8.98176C32.0633 8.98176 32.8062 9.58641 33.169 10.623C33.4799 9.91465 34.2401 8.98176 35.674 8.98176C37.2633 8.98176 37.9716 9.98375 38.4553 12.1778L39.0945 15.0628C39.4573 16.7385 39.941 17.4123 40.3729 17.7578H36.866L35.5876 11.7631C35.3457 10.6402 35.1557 9.811 34.3956 9.811C33.8255 9.811 33.4799 10.2947 33.2381 10.8648C33.359 11.2967 33.4108 11.815 33.4108 12.3678V14.2681C33.4108 16.1339 33.7045 17.395 34.1882 17.7578H30.7158L30.8195 12.5924C30.854 10.5539 30.5604 9.811 29.5756 9.811C29.0919 9.811 28.66 10.122 28.3836 10.5539V14.7346C28.3836 16.4621 28.7982 17.4296 29.1956 17.7578H25.6886L25.7923 13.3007C25.8268 11.5731 25.274 10.8994 24.9976 10.7093ZM40.1644 14.8555C40.1644 12.8688 41.4601 11.4522 43.3604 10.7093C42.9976 11.0894 42.6176 11.9186 42.6176 13.318C42.6176 14.8555 43.395 16.2548 44.8289 16.2376C45.088 16.2376 45.3644 16.1857 45.6408 16.0821C44.8289 13.7499 43.7923 10.6748 43.2395 10.0356C42.8594 9.58641 42.3066 9.51731 41.892 9.58641L41.8747 9.53459C42.4621 9.18907 43.1186 8.98176 43.8269 8.98176C44.8634 8.98176 46.0209 9.46548 46.5391 10.813C47.1438 12.3678 47.8694 14.4063 48.5431 16.203C48.8195 16.9459 49.1823 17.516 49.4242 17.7578H46.2282L45.7445 16.3758C45.2607 17.395 44.4661 17.896 43.2913 17.896C41.4601 17.896 40.1644 16.5831 40.1644 14.8555ZM50.8845 17.7578H49.0533V17.6887C49.157 17.6542 49.8653 17.395 51.1782 15.6675L52.5084 13.9226L50.1417 10.001C49.7962 9.43093 49.1915 9.2409 49.0533 9.20635V9.11997H53.1995V9.20635C52.9922 9.34455 52.9749 9.75917 53.1822 10.1047L54.7543 12.6615L55.8945 11.0548C56.2918 10.502 56.5682 10.0356 56.5682 9.65552C56.5682 9.50003 56.5164 9.34455 56.3955 9.20635V9.11997H58.2267V9.20635C58.123 9.2409 57.4147 9.48276 56.1018 11.2103L54.8579 12.8342L56.8965 16.1166C57.6739 17.395 58.1576 17.6369 58.3303 17.6542V17.7578H54.0632V17.6369C54.2878 17.5678 54.3397 16.9459 53.6486 15.7884L52.6121 14.0781L51.3855 15.8229C50.9882 16.3758 50.7118 16.8422 50.7118 17.2223C50.7118 17.395 50.7636 17.5505 50.8845 17.6887V17.7578ZM58.7159 6.99506C58.7159 6.14855 59.407 5.42297 60.288 5.42297C61.1864 5.42297 61.8256 6.14855 61.8256 6.99506C61.8256 7.85884 61.1864 8.5326 60.288 8.5326C59.407 8.5326 58.7159 7.85884 58.7159 6.99506ZM58.2668 10.7093V10.6402L61.6528 8.98176V14.7346C61.6528 16.4621 62.0674 17.4296 62.4648 17.7578H58.9578L59.0615 13.3007C59.096 11.5731 58.5432 10.8994 58.2668 10.7093ZM62.7375 10.7093V10.6402L66.1236 8.98176V10.2774C66.5209 9.74189 67.3156 8.98176 68.5422 8.98176C69.8033 8.98176 70.5461 9.58641 70.9089 10.623C71.2199 9.91465 71.98 8.98176 73.4139 8.98176C75.0033 8.98176 75.7116 9.98375 76.1953 12.1778L76.8345 15.0628C77.1973 16.7385 77.681 17.4123 78.1129 17.7578H74.6059L73.3275 11.7631C73.0857 10.6402 72.8956 9.811 72.1355 9.811C71.5654 9.811 71.2199 10.2947 70.978 10.8648C71.099 11.2967 71.1508 11.815 71.1508 12.3678V14.2681C71.1508 16.1339 71.4445 17.395 71.9282 17.7578H68.4558L68.5594 12.5924C68.594 10.5539 68.3003 9.811 67.3156 9.811C66.8319 9.811 66.4 10.122 66.1236 10.5539V14.7346C66.1236 16.4621 66.5382 17.4296 66.9355 17.7578H63.4286L63.5322 13.3007C63.5668 11.5731 63.0139 10.8994 62.7375 10.7093ZM86.3414 13.5253H86.3759C86.3414 15.8402 84.6484 17.896 82.1779 17.896C79.6384 17.896 77.669 15.9957 77.669 13.4734C77.669 10.8303 79.673 8.98176 82.1434 8.98176C83.8364 8.98176 85.6331 9.98375 85.6331 12.2987H80.2258C80.2085 12.4196 80.2085 12.5406 80.2085 12.6615C80.2085 14.5791 81.7115 15.8402 83.5945 15.8402C84.9939 15.8402 86.0995 14.9937 86.3414 13.5253ZM82.3853 9.22362C81.1241 9.22362 80.3813 10.5884 80.2258 12.1259H81.1068C82.7653 12.1259 83.5082 11.5904 83.5082 10.3465C83.5082 9.79372 83.1454 9.22362 82.3853 9.22362ZM86.4916 7.3924V7.3233L89.8776 5.66483V14.7346C89.8776 16.4621 90.2923 17.4296 90.6896 17.7578H87.1826L87.2863 9.98375C87.3036 8.25618 86.768 7.58243 86.4916 7.3924ZM90.9624 7.3924V7.3233L94.3484 5.66483V10.312C94.4693 10.0701 95.2813 8.98176 96.9916 8.98176C98.7191 8.98176 100.516 10.1392 100.516 13.2316C100.516 16.5831 98.3909 17.896 96.9225 17.896C95.4886 17.896 94.6075 17.015 94.3484 16.8076L91.6534 17.7578L91.757 9.98375C91.7743 8.25618 91.2388 7.58243 90.9624 7.3924ZM94.3484 10.7612V16.393C94.6421 16.704 95.1431 17.2223 96.0069 17.2223C97.1471 17.2223 97.7863 15.9266 97.769 13.4907C97.7344 10.813 97.0261 9.60369 95.9205 9.60369C95.1776 9.60369 94.4866 10.3984 94.3484 10.7612ZM100.105 9.18907V9.11997H103.888V9.18907C103.836 9.22362 103.75 9.39638 103.75 9.72462C103.75 10.0183 103.819 10.3984 104.044 10.9685L105.771 15.2183L106.842 13.0588C107.188 12.3505 107.326 11.7113 107.326 11.0548C107.326 10.122 107.05 9.48276 106.808 9.18907V9.11997H109.347V9.18907C108.984 9.63824 108.432 10.3465 107.412 12.4023L105.771 15.702V17.7578H104.026L101.504 11.6422C100.796 9.93193 100.347 9.32728 100.105 9.18907Z" fill="#363636"/>
<defs>
<linearGradient id="paint0_linear_1231_2" x1="7.86065" y1="0.234869" x2="12.1411" y2="19.7677" gradientUnits="userSpaceOnUse">
<stop stop-color="#A888FF"/>
<stop offset="1" stop-color="#8C63FF"/>
</linearGradient>
</defs>
</svg>
